<?xml version="1.0" encoding="iso-8859-1"?>
<!-- Generator: Adobe Illustrator 19.0.0, SVG Export Plug-In . SVG Version: 6.00 Build 0)  -->
<svg version="1.1" id="Layer_1" xmlns="http://www.w3.org/2000/svg" xmlns:xlink="http://www.w3.org/1999/xlink" x="0px" y="0px"
	 viewBox="0 0 512 512" style="enable-background:new 0 0 512 512;" xml:space="preserve">
<circle style="fill:#E7B3A8;" cx="316.687" cy="202.021" r="76.137"/>
<g>
	<path style="fill:#4C213A;" d="M316.682,291.7c-49.444,0-89.67-40.227-89.67-89.673c0-49.444,40.226-89.671,89.67-89.671
		c49.446,0,89.673,40.227,89.673,89.671C406.354,251.474,366.127,291.7,316.682,291.7z M316.682,139.423
		c-34.52,0-62.604,28.085-62.604,62.605c0,34.521,28.084,62.607,62.604,62.607c34.521,0,62.607-28.085,62.607-62.607
		C379.288,167.508,351.203,139.423,316.682,139.423z"/>
	<path style="fill:#4C213A;" d="M316.683,241.484c-7.473,0-13.533-6.06-13.533-13.533v-51.846c0-7.473,6.06-13.533,13.533-13.533
		c7.473,0,13.533,6.06,13.533,13.533v51.846C330.216,235.424,324.156,241.484,316.683,241.484z"/>
	<path style="fill:#4C213A;" d="M342.604,215.561h-51.845c-7.473,0-13.533-6.06-13.533-13.533c0-7.473,6.06-13.533,13.533-13.533
		h51.845c7.473,0,13.533,6.06,13.533,13.533C356.137,209.501,350.078,215.561,342.604,215.561z"/>
	<path style="fill:#4C213A;" d="M485.573,392.015H144.268c-13.43,0-25.988-10.322-28.589-23.497L56.904,70.85
		c-0.164-0.627-1.388-1.633-2.046-1.673H13.533C6.06,69.177,0,63.117,0,55.644s6.06-13.533,13.533-13.533h41.335
		c13.43,0,25.988,10.32,28.589,23.495l58.775,297.669c0.164,0.627,1.39,1.633,2.046,1.674h341.294
		c7.473,0,13.533,6.06,13.533,13.533S493.046,392.015,485.573,392.015z"/>
	<path style="fill:#4C213A;" d="M451.952,333.875H200.956c-13.438,0-25.992-10.33-28.578-23.515L129.743,93.168
		c-1.429-7.289,0.341-14.613,4.856-20.099c4.513-5.485,11.36-8.63,18.781-8.63h224.197c7.473,0,13.533,6.06,13.533,13.533
		c0,7.473-6.06,13.533-13.533,13.533H157l41.938,213.641c0.164,0.623,1.379,1.623,2.03,1.663h250.985
		c0.403-0.05,1.184-0.724,1.296-1.145l31.288-214.159h-40.634c-7.473,0-13.533-6.06-13.533-13.533
		c0-7.473,6.06-13.533,13.533-13.533h43.463c7.297,0,14.13,3.067,18.751,8.412c4.62,5.344,6.666,12.551,5.611,19.77l-31.704,216.984
		C478.035,323.215,465.705,333.875,451.952,333.875z"/>
</g>
<circle style="fill:#E7B3A8;" cx="213.267" cy="417.413" r="38.937"/>
<path style="fill:#4C213A;" d="M213.27,469.889c-28.932,0-52.469-23.539-52.469-52.47s23.538-52.469,52.469-52.469
	s52.47,23.538,52.47,52.469S242.202,469.889,213.27,469.889z M213.27,392.015c-14.008,0-25.403,11.396-25.403,25.403
	c0,14.009,11.396,25.404,25.403,25.404c14.009,0,25.404-11.396,25.404-25.404C238.674,403.411,227.278,392.015,213.27,392.015z"/>
<circle style="fill:#E7B3A8;" cx="414.937" cy="417.413" r="38.937"/>
<path style="fill:#4C213A;" d="M414.934,469.889c-28.932,0-52.47-23.539-52.47-52.47s23.539-52.469,52.47-52.469
	s52.469,23.538,52.469,52.469S443.866,469.889,414.934,469.889z M414.934,392.015c-14.009,0-25.404,11.396-25.404,25.403
	c0,14.009,11.396,25.404,25.404,25.404s25.403-11.396,25.403-25.404C440.338,403.411,428.942,392.015,414.934,392.015z"/>
<g>
</g>
<g>
</g>
<g>
</g>
<g>
</g>
<g>
</g>
<g>
</g>
<g>
</g>
<g>
</g>
<g>
</g>
<g>
</g>
<g>
</g>
<g>
</g>
<g>
</g>
<g>
</g>
<g>
</g>
</svg>
